<mxfile host="app.diagrams.net" agent="Mozilla/5.0 (Windows NT 10.0; Win64; x64; rv:132.0) Gecko/20100101 Firefox/132.0" version="24.8.4">
  <diagram name="Seite-1" id="zq3XVoV4E_7CXUIM0VIY">
    <mxGraphModel dx="1050" dy="599" grid="1" gridSize="10" guides="1" tooltips="1" connect="1" arrows="1" fold="1" page="1" pageScale="1" pageWidth="827" pageHeight="1169" math="0" shadow="0">
      <root>
        <mxCell id="0" />
        <mxCell id="1" parent="0" />
        <mxCell id="joMMrS8FZHTddyct-S3n-3" value="" style="rounded=0;whiteSpace=wrap;html=1;" parent="1" vertex="1">
          <mxGeometry x="80" y="190" width="410" height="470" as="geometry" />
        </mxCell>
        <mxCell id="joMMrS8FZHTddyct-S3n-5" value="" style="rounded=1;whiteSpace=wrap;html=1;" parent="1" vertex="1">
          <mxGeometry x="130" y="260" width="120" height="20" as="geometry" />
        </mxCell>
        <mxCell id="joMMrS8FZHTddyct-S3n-6" value="First Name, Last Name" style="text;html=1;align=center;verticalAlign=middle;whiteSpace=wrap;rounded=0;" parent="1" vertex="1">
          <mxGeometry x="110" y="230" width="170" height="30" as="geometry" />
        </mxCell>
        <mxCell id="joMMrS8FZHTddyct-S3n-7" value="" style="rounded=1;whiteSpace=wrap;html=1;" parent="1" vertex="1">
          <mxGeometry x="130" y="340" width="120" height="90" as="geometry" />
        </mxCell>
        <mxCell id="joMMrS8FZHTddyct-S3n-8" value="Material" style="text;html=1;align=center;verticalAlign=middle;whiteSpace=wrap;rounded=0;" parent="1" vertex="1">
          <mxGeometry x="130" y="310" width="60" height="30" as="geometry" />
        </mxCell>
        <mxCell id="joMMrS8FZHTddyct-S3n-9" value="Dropdown:&lt;div&gt;[powder, slurry]&lt;/div&gt;" style="text;html=1;align=center;verticalAlign=middle;whiteSpace=wrap;rounded=0;" parent="1" vertex="1">
          <mxGeometry x="140" y="350" width="60" height="30" as="geometry" />
        </mxCell>
      </root>
    </mxGraphModel>
  </diagram>
</mxfile>
